<svg width="48" height="48" viewBox="0 0 48 48" fill="none" xmlns="http://www.w3.org/2000/svg">
  <defs>
    <linearGradient id="slopify-grad" x1="6" y1="4" x2="42" y2="44" gradientUnits="userSpaceOnUse">
      <stop stop-color="#3fb950"/>
      <stop offset="0.45" stop-color="#d29922"/>
      <stop offset="1" stop-color="#f85149"/>
    </linearGradient>
  </defs>
  <path d="M30 8c6 0 10 4 10 10 0 5-3 8-9 10-7 2-11 4-11 9 0 6 5 11 13 11 4 0 7-1 9-3" stroke="url(#slopify-grad)" stroke-width="3.5" stroke-linecap="round" fill="none"/>
  <path d="M18 40c-6 0-10-4-10-10 0-5 3-8 9-10 7-2 11-4 11-9 0-6-5-11-13-11-4 0-7 1-9 3" stroke="url(#slopify-grad)" stroke-width="3.5" stroke-linecap="round" fill="none" opacity="0.85"/>
  <ellipse cx="16" cy="42" rx="3" ry="2" fill="#f85149" opacity="0.9"/>
  <ellipse cx="24" cy="44.5" rx="2" ry="1.4" fill="#d29922" opacity="0.75"/>
  <ellipse cx="31" cy="43" rx="2.5" ry="1.6" fill="#3fb950" opacity="0.6"/>
</svg>
